<?xml version="1.0"?>
<svg xmlns="http://www.w3.org/2000/svg" xmlns:xlink="http://www.w3.org/1999/xlink" version="1.1" id="Capa_1" x="0px" y="0px" viewBox="0 0 99.115 99.115" style="enable-background:new 0 0 99.115 99.115;" xml:space="preserve" width="512px" height="512px"><g><g>
	<path d="M80.713,82.968c-3.056-5.763-2.406-4.225-2.957-7.072c-0.501-2.569-0.249-5.54-0.388-8.615   c-0.208-4.649-0.643-9.535-0.643-13.632c0-3.6-1.503-4.745-2.315-7.072c-1.181-3.388-2.128-6.486-3.729-8.102   c-1.941-1.961-4.069-0.716-4.069-0.716c-1.402-3.629-1.77-4.553-3.246-6.345c-1.418-1.725-3.559-1.492-3.559-1.492   s-1.049-5.209-3.445-7.838c-1.278-1.403-3.913-1.387-4.905-0.907c-0.717,0.349-1.678,1.467-2.684,2.202   c-1.934,1.413-4.267,4.057-4.271,4.062l0,0c0,0-0.396-1.207-1.499-3.363c-0.3-0.586-0.691-1.235-1.119-1.917   c2.238-2.354,3.62-5.529,3.62-9.033C45.504,5.877,39.626,0,32.378,0c-7.251,0-13.126,5.877-13.126,13.128   c0,7.079,5.607,12.834,12.622,13.101c0.622,1.845,1.378,3.858,2.039,5.556c1.232,3.165,2.269,5.748,2.859,9.074   c0.432,2.439,0.177,5.228,0.072,7.558c-0.089,1.978-0.235,3.884-0.464,5.45c-0.313,2.138-0.991,3.64-1.353,4.6   c-0.271,0.717-0.225,1.321-0.225,1.321s-0.498-0.008-1.09,0.186c-0.591,0.195-0.965,0.692-0.965,0.692l-0.983-0.661   c0,0,0.185-0.357,0-0.996c-0.201-0.697-0.552-1.676-1.048-2.987c-0.202-0.535-0.395-1.6-0.553-2.104   c-0.417-1.333-0.967-1.827-0.967-1.827s0.57-1.83-0.194-3.812c-0.801-2.076-2.561-4.868-4.518-6.72   c-1.612-1.526-2.926-1.925-4.32-1.714c-1.735,0.263-2.398,2.273-2.075,4.39c0.195,1.28,0.765,3.001,0.9,3.886   c0.321,2.112-0.844,4.61-0.801,6.066c0.056,1.887,1.039,2.933,1.94,6.919c0.321,1.424,1.251,2.982,1.677,4.613   c0.631,2.41,1.018,4.709,1.298,5.29c1.486,3.076,7.383,6.939,12.86,11.959c3.085,2.828,6.736,2.842,9.258,5.401   c1.545,1.566,2.394,4.186,3.986,6.558c6.6,9.83,25.938,0.226,31.02-7.061C81.435,86.137,81.188,83.865,80.713,82.968z    M20.899,13.128c0-6.34,5.137-11.48,11.478-11.48s11.478,5.14,11.478,11.48c0,2.915-1.095,5.568-2.886,7.593   c-0.511-0.8-1.031-1.625-1.503-2.451c1.051-1.445,1.677-3.218,1.677-5.142c0-4.843-3.925-8.767-8.767-8.768   c-4.842,0-8.766,3.925-8.766,8.768c0,4.198,2.953,7.703,6.895,8.56c0.227,0.805,0.463,1.623,0.708,2.463   c0.038,0.13,0.082,0.269,0.123,0.403C25.484,24.028,20.899,19.115,20.899,13.128z M38.503,16.44   c-1.973-4.005-3.405-8.035-7.116-6.929c-1.109,0.331-2.234,1.444-2.411,3.273c-0.174,1.779,0.277,4.164,0.976,6.864   c-2.649-0.986-4.539-3.529-4.539-6.52c0-3.847,3.118-6.965,6.964-6.965s6.964,3.118,6.963,6.965   C39.34,14.327,39.037,15.455,38.503,16.44z" data-original="#010002" class="active-path" data-old_color="##789FD" fill="#789FD2"/>
</g></g> </svg>
