<?xml version="1.0"?>
<svg xmlns="http://www.w3.org/2000/svg" xmlns:xlink="http://www.w3.org/1999/xlink" version="1.1" id="Capa_1" x="0px" y="0px" viewBox="0 0 392.077 392.077" style="enable-background:new 0 0 392.077 392.077;" xml:space="preserve" width="512px" height="512px" class=""><g><g>
	<path d="M339.378,169.68L339.378,169.68v17.065h-37.943c4.481-3.324,8.568-7.089,12.268-11.295   c15.347-17.477,20.347-38.767,21.761-54.358h50.08V1.754H266.206v119.337h50.563c-1.343,12.518-5.46,28.904-17.041,42.084   c-10.287,11.713-25.091,18.993-43.964,21.946v-49.638H136.426v51.255H52.705V169.68H0v52.705h52.705v-17.047h43.928   c-23.873,18.467-33.504,46.655-37.4,65.647H5.901v119.337h119.337V270.985H77.945c4.947-22.101,18.963-55.086,58.481-63.547v47.383   h119.337v-49.483h83.608v17.047h52.705V169.68H339.378z" data-original="#010002" class="active-path" data-old_color="##A3C7E" fill="#A3C7E6"/>
</g></g> </svg>
