<svg id="Layer_1" data-name="Layer 1" xmlns="http://www.w3.org/2000/svg" viewBox="0 0 258 49"><defs><style>.cls-1{fill:#ffa300}</style></defs><title>gold_accent_centered</title><path class="cls-1" transform="rotate(-90 111.215 42.025)" d="M104.64 35.45h13.15V48.6h-13.15z"/><path class="cls-1" transform="rotate(-90 111.215 6.955)" d="M104.64.38h13.15v13.15h-13.15z"/><path class="cls-1" transform="rotate(-90 146.285 42.025)" d="M139.71 35.45h13.15V48.6h-13.15z"/><path class="cls-1" transform="rotate(-90 146.285 6.955)" d="M139.71.38h13.15v13.15h-13.15z"/><path class="cls-1" transform="rotate(-90 181.355 42.025)" d="M174.78 35.45h13.15V48.6h-13.15z"/><path class="cls-1" transform="rotate(-90 181.355 6.955)" d="M174.78.38h13.15v13.15h-13.15z"/><path class="cls-1" transform="rotate(-90 41.575 42.025)" d="M35 35.45h13.15V48.6H35z"/><path class="cls-1" transform="rotate(-90 41.575 6.955)" d="M35 .38h13.15v13.15H35z"/><path class="cls-1" transform="rotate(-90 76.645 42.025)" d="M70.07 35.45h13.15V48.6H70.07z"/><path class="cls-1" transform="rotate(-90 6.575 42.025)" d="M0 35.45h13.15V48.6H0z"/><path class="cls-1" transform="rotate(-90 76.645 6.955)" d="M70.07.38h13.15v13.15H70.07z"/><path class="cls-1" transform="rotate(-90 216.425 42.025)" d="M209.85 35.45H223V48.6h-13.15z"/><path class="cls-1" transform="rotate(-90 216.425 6.955)" d="M209.85.38H223v13.15h-13.15z"/><path class="cls-1" transform="rotate(-90 251.495 42.025)" d="M244.92 35.45h13.15V48.6h-13.15z"/></svg>